<svg width="135" height="28" viewBox="0 0 195 38" fill="none" xmlns="http://www.w3.org/2000/svg">
<path d="M12.0791 32.2459C6.69225 29.0918 1.77085 26.241 1.14267 25.9107L0.000514198 25.3101L1.22593e-06 12.655C-0.000283356 5.69478 0.0490149 0 0.109575 0C0.170134 0 2.91518 1.46646 6.2097 3.25881C13.2295 7.07786 12.1048 6.84076 15.0953 5.13202C21.9857 1.195 22.1273 1.18762 27.9631 4.46077C29.98 5.59205 31.7092 6.51761 31.8056 6.51761C31.9776 6.51761 33.3416 5.78987 40.4132 1.92488C42.3502 0.866199 43.9908 0 44.0588 0C44.1269 0 44.1826 5.66808 44.1826 12.5957V25.1915L43.6929 25.4971C41.5405 26.8405 22.2062 38.0152 22.0605 38C21.9576 37.9891 17.466 35.3999 12.0791 32.2459ZM32.3054 29.7332L42.4414 23.8367V13.5478C42.4414 7.88885 42.3811 3.25881 42.3075 3.25881C42.2338 3.25881 39.9041 4.48087 37.1302 5.97447C31.1154 9.21327 32.3136 9.1434 27.688 6.52509C22.1429 3.38635 22.1019 3.38671 16.3982 6.62295C11.9698 9.13563 13.0445 9.21027 7.07313 5.97546C4.31984 4.48398 1.9937 3.26255 1.90392 3.26121C1.69274 3.25809 1.69603 23.497 1.90721 23.8058C2.0578 24.0259 5.82248 26.2498 15.6703 31.9358C18.0046 33.2836 20.3552 34.6593 20.8939 34.9929C21.4326 35.3264 21.9399 35.6062 22.0213 35.6145C22.1027 35.6223 26.7306 32.9763 32.3054 29.7332ZM17.4262 30.313C15.9379 29.4466 14.4933 28.4743 14.2159 28.1524L13.7115 27.567V23.3568C13.7115 18.861 13.6084 18.2594 12.7407 17.6919C11.6662 16.9892 11.5509 17.3866 11.4852 22.0198L11.4262 26.1791L10.9634 26.245C10.5014 26.3107 5.58676 23.5917 4.62789 22.7398C3.07005 21.3557 3.8505 19.9871 7.29079 18.0701C10.4839 16.2908 10.4825 16.3256 7.43422 14.539C6.07662 13.7433 4.75439 12.8812 4.49594 12.6233L4.02602 12.1543L3.94911 10.3093C3.80262 6.79573 3.98744 6.73033 7.84733 8.92987C11.4423 10.9784 11.3547 10.8787 11.5341 13.1327L11.6824 14.9965L12.1908 15.5366C13.4004 16.8219 13.7115 16.2601 13.7115 12.7903V10.1912L14.2012 9.70301C14.4706 9.43452 15.7988 8.60628 17.1529 7.86249C18.507 7.11868 19.8426 6.36111 20.1211 6.17902L20.6273 5.84793L20.9783 6.19828L21.3293 6.54863V18.9818C21.3293 34.0196 21.7408 32.8249 17.4262 30.313ZM23.0781 31.5161C22.8377 31.0676 22.7505 7.46369 22.9861 6.58697C23.2056 5.77007 23.5622 5.86761 26.5886 7.57238C30.1931 9.60282 30.2054 9.61294 30.501 10.7844C30.8313 12.0938 30.9172 12.0708 35.4869 9.45055C37.6749 8.19592 39.5352 7.16938 39.6207 7.16938C40.2184 7.16938 40.2802 7.97272 40.219 14.9462L40.1561 22.1149L39.7354 22.5786C39.504 22.8336 37.9369 23.8357 36.253 24.8055C34.569 25.7753 31.1144 27.7764 28.576 29.2525C23.7266 32.0725 23.4398 32.1906 23.0781 31.5161ZM32.0836 25.402L32.6471 24.7336V19.1283V13.523L32.3206 13.2525C31.977 12.9678 31.5694 13.1642 30.9672 13.9043C30.6806 14.2565 30.5538 25.6466 30.8334 25.9256C31.1301 26.2218 31.5358 26.0519 32.0836 25.402ZM53.9779 31.1772C53.5064 30.6101 53.7782 30.0765 59.9546 19.4442C68.535 4.67356 68.625 4.52367 69.0695 4.25851L69.4706 4.01921L69.8313 4.53688C70.0296 4.82159 71.104 6.63022 72.2189 8.55606L74.246 12.0576L74.1203 12.7094C74.0512 13.0678 73.366 14.4504 72.5979 15.7817C70.7664 18.956 70.7019 19.3356 71.9936 19.3356C73.0988 19.3356 73.6418 18.9085 74.7699 17.1517C76.1008 15.0792 75.9713 15.119 81.1802 15.1838C86.6394 15.2517 86.4326 15.0664 84.6155 18.2609C83.1198 20.8902 82.8595 21.0044 78.245 21.0567C73.6728 21.1086 73.7991 20.8743 76.186 24.8756C78.5292 28.8035 78.6448 29.7975 76.8958 30.9808L76.2862 31.3932L72.0112 31.4636L67.7362 31.534L67.3973 31.0511L67.0584 30.5682L67.4017 29.8945C67.5906 29.524 68.6701 27.6348 69.8006 25.6965C72.0297 21.8746 72.2084 21.227 71.0626 21.1233C69.8721 21.0156 69.174 21.7097 67.3688 24.7963C64.2245 30.1724 63.9502 30.5747 63.1043 31.0492L62.2973 31.5019H58.2726H54.2479L53.9779 31.1772ZM81.3465 31.2715C80.7262 30.9039 80.8772 30.4675 82.7612 27.1854C85.6508 22.1513 85.1689 22.3801 92.8852 22.3784L98.3841 22.3772L99.1262 21.6711C100.251 20.6006 102 17.4336 101.716 16.9804C101.057 15.9294 99.3973 16.7715 98.1197 18.8054C96.8417 20.84 96.7898 20.8564 91.6345 20.8564H87.2638L87.1243 20.4934C86.8049 19.6626 89.2818 15.7828 90.44 15.2997L91.1813 14.9905H101.935H112.689L112.979 15.3388L113.268 15.687L112.57 17.0225C110.555 20.8733 104.732 30.5389 104.184 30.9417L103.57 31.3932L92.6487 31.4452C85.3924 31.4797 81.5996 31.4215 81.3465 31.2715ZM94.5089 29.4077C95.7404 28.7824 97.8334 24.656 97.1895 24.1226C95.8568 23.0186 91.4025 28.4189 92.6329 29.6471C92.9993 30.0128 93.4235 29.9587 94.5089 29.4077ZM108.535 31.357C108.013 30.8358 111.149 24.6389 112.647 23.2334L113.212 22.7031L119.383 22.5944L125.553 22.4858L126.167 22.0315C126.838 21.5349 129.066 17.9462 129.066 17.3621C129.066 15.6746 126.845 16.6441 125.308 19.0023C124.921 19.5956 124.272 20.3044 123.865 20.5774L123.125 21.0737H119.038H114.95L114.608 20.7322C113.992 20.1172 115.932 16.4882 117.385 15.5378L117.901 15.2005L128.938 15.1996C135.009 15.1991 140.068 15.2555 140.18 15.3248C140.654 15.6171 140.194 16.5716 136.508 22.949C131.802 31.0913 132.036 30.7344 131.143 31.1573L130.415 31.5019H119.548C113.57 31.5019 108.615 31.4366 108.535 31.357ZM121.589 29.6255C122.484 29.2018 124.79 25.526 124.674 24.7093C124.437 23.0496 122.323 24.2838 120.672 27.0446L119.456 29.0783L119.698 29.5297C119.99 30.0732 120.581 30.1032 121.589 29.6255ZM136.249 31.3485C135.276 30.964 135.351 30.7562 138.272 25.7446C142.939 17.738 143.619 16.5661 146.914 10.8627C148.743 7.69624 150.466 4.8689 150.741 4.57973L151.242 4.05398L151.573 4.32792C151.754 4.47853 152.848 6.20588 154.002 8.16636L156.101 11.7309L155.963 12.6546C155.887 13.1627 155.803 13.8717 155.777 14.2302L155.729 14.8819L161.479 14.94C169.173 15.0176 168.854 14.2998 164.519 21.7955C159.946 29.7044 159.459 30.461 158.63 30.9588L157.905 31.3933L147.24 31.4355C141.375 31.4586 136.428 31.4195 136.249 31.3485ZM149.363 29.3325C149.862 28.941 150.691 27.5743 155.149 19.7992C156.739 17.0264 156.759 16.5983 155.296 16.6467C153.968 16.6906 153.515 17.3388 148.076 26.9574C146.592 29.5824 147.324 30.9334 149.363 29.3325ZM163.233 31.1071L162.744 30.7124L163.017 30.1838C164.558 27.2018 171.03 16.4277 171.629 15.8479L172.403 15.0992L183.219 15.0369C196.913 14.9581 195.928 14.6228 193.643 18.5863C186.468 31.0312 186.513 30.9652 185.078 31.2975C184.618 31.4041 179.624 31.4938 173.981 31.4966L163.721 31.5013L163.233 31.1071ZM176.59 29.429C177.389 28.8745 183.782 17.8674 183.661 17.2544C183.105 14.4318 180.971 16.9879 175.017 27.6088C173.837 29.7151 174.715 30.7309 176.59 29.429Z" fill="white"/>
</svg>
