<svg width="129" height="25" viewBox="0 0 129 25" fill="none" xmlns="http://www.w3.org/2000/svg">
<path fill-rule="evenodd" clip-rule="evenodd" d="M122.952 20.3094L127.774 7.14792H114.454C112.732 7.14792 110.855 8.5091 110.243 10.1735L106.607 19.9688H99.4874L102.932 11.0816H106.568L108.29 6.39171H104.731L107.181 0H100.865L98.4924 6.39171H94.3202L92.5977 11.0816H96.77L93.4776 19.9688H86.2053L91.2959 6.69419H85.0958L80.081 20.2726H74.3387L72.7321 15.1658L81.9951 6.95921H75.4109L67.9476 13.5785H67.3725L72.1964 0.453728H66.4162L59.1025 20.3094H53.7815L58.566 7.14792H45.2839C43.5615 7.14792 41.686 8.5091 41.0351 10.1735L37.2069 20.6126H32.2307L37.2069 7.10977H26.2981L27.4848 3.85737H16.8049L17.9536 0.756214H0V6.42986H10.1055L3.25382 25H8.99541L14.6991 9.56848H19.6367L13.9337 25H19.7139L24.1923 12.8209H29.3602L24.8818 25H34.0689L37.0159 22.0113C37.0545 23.4869 37.8199 25 39.121 25H44.4034L47.5807 21.6706C47.5041 23.2219 48.3081 25 49.6858 25H54.9681L58.6812 21.4063L57.3801 25H63.1603L66.5679 15.7708H67.2181L70.1271 25H76.29L79.7741 21.3688C79.6204 22.995 80.4623 24.8855 81.8792 24.8855H89.5728L93.1335 21.0282C92.8267 22.6925 93.6679 24.8855 95.1993 24.8855H102.894L106.225 21.2932C105.956 22.9194 106.798 25 108.29 25H113.573L116.75 21.6706C116.674 23.2219 117.478 25 118.855 25H129V20.3094H122.952ZM47.8489 20.1963H43.294L46.3182 11.989H50.8731L47.8489 20.1963ZM117.018 20.1963H112.464L115.526 11.989H120.043L117.018 20.1963Z" fill="white"/>
<path fill-rule="evenodd" clip-rule="evenodd" d="M95 0H88.0836L86 5H92.8331L95 0Z" fill="white"/>
</svg>
