<svg width="124" height="29" viewBox="0 0 174 49" fill="none" xmlns="http://www.w3.org/2000/svg">
<g clipPath="url(#clip0_128_721)">
<path fillRule="evenodd" clipRule="evenodd" d="M100.528 15.3138C100.515 15.3252 100.201 15.3473 99.8286 15.3628C99.4565 15.3783 99.137 15.3996 99.1185 15.4102C99.1001 15.4208 98.8946 15.4438 98.6617 15.4615C98.4292 15.4791 98.2243 15.5025 98.2063 15.5135C98.1888 15.5246 98.0273 15.5466 97.8484 15.5625C96.9343 15.6438 95.5358 15.9592 94.7297 16.2658C94.5474 16.3351 94.3599 16.4034 94.3135 16.4175C94.1194 16.4763 94.1019 16.6179 94.0697 18.3875C94.0352 20.2849 94.0281 20.2393 94.359 20.2796C94.4679 20.2929 94.6724 20.2621 94.8717 20.2022C95.6054 19.9818 95.8999 19.9008 96.672 19.7067C97.6552 19.4596 98.7422 19.2278 99.3453 19.1364C100.381 18.9795 102.737 19.0095 103.22 19.1857C103.315 19.2205 103.55 19.2846 103.744 19.328C104.147 19.4191 104.467 19.5695 104.818 19.8333C105.075 20.0263 105.232 20.3118 105.361 20.8151C105.444 21.1431 105.45 21.1849 105.483 21.6831L105.515 22.1503L105.093 22.1157C103.421 21.9789 101.52 21.9238 100.694 21.9882L99.3689 22.0916C98.0321 22.1961 96.3752 22.5401 95.5477 22.8851C94.4598 23.3386 93.4127 24.1719 93.113 24.8222C92.4971 26.159 92.3679 27.8696 92.7613 29.4655C92.9118 30.0751 93.0396 30.4195 93.2484 30.7757C93.3208 30.9 93.3805 31.0221 93.3805 31.047C93.3805 31.1829 94.4901 32.1593 95.0378 32.5052C95.1808 32.5955 95.3048 32.6856 95.3133 32.7056C95.3219 32.7254 95.3574 32.7418 95.3919 32.7418C95.4265 32.7418 95.6002 32.807 95.7782 32.8867C95.9567 32.9663 96.2729 33.0811 96.4812 33.1417C96.6895 33.2023 96.9556 33.2839 97.073 33.3231C97.1899 33.3623 97.6372 33.4541 98.0671 33.5273C98.8458 33.6599 98.8539 33.6602 101.026 33.6606C103.22 33.661 103.799 33.6296 104.576 33.4685C105.659 33.2439 106.154 33.1097 106.565 32.9293C107.425 32.5512 107.643 32.4221 108.075 32.0355C108.35 31.7897 108.728 31.4025 108.85 31.2405C109.076 30.94 109.568 29.9261 109.664 29.5598C109.719 29.3524 109.783 29.1475 109.806 29.1046C109.904 28.9286 110.071 27.7415 110.121 26.8728C110.158 26.2208 110.154 23.7504 110.115 23.0544C110.067 22.214 109.958 21.3813 109.83 20.886C109.595 19.9781 109.463 19.6079 109.158 19.0021C108.39 17.4767 106.798 16.2202 104.955 15.6849C104.65 15.5964 104.034 15.4808 103.511 15.4142C103.394 15.3993 103.245 15.3771 103.18 15.3649C103.019 15.335 100.557 15.2875 100.528 15.3138ZM121.903 15.5886C121.213 15.6234 121.046 15.6425 120.269 15.7753C119.56 15.8966 119.113 16.0194 118.615 16.23C118.263 16.379 118.107 16.461 117.639 16.7465C117.589 16.7773 117.416 16.8803 117.256 16.9754C116.916 17.1778 116.283 17.8129 115.87 18.3675C115.543 18.8062 114.967 19.9318 114.967 20.1336C114.967 20.174 114.937 20.2654 114.9 20.3367C114.763 20.6003 114.494 21.8475 114.396 22.6747C114.308 23.4213 114.298 23.7009 114.317 25.0553C114.345 27.0555 114.44 27.6586 114.978 29.2917C115.18 29.9046 115.441 30.374 115.945 31.0322C116.285 31.4755 116.969 32.1473 117.24 32.3039C117.357 32.3717 117.463 32.4396 117.476 32.4548C117.52 32.5065 117.688 32.5989 118.115 32.8062C118.573 33.0286 118.836 33.1228 119.379 33.2584C119.569 33.3059 119.842 33.3769 119.985 33.4163C120.784 33.6356 121.985 33.7202 124.104 33.7063C125.502 33.6971 125.822 33.6815 126.329 33.5976C127.365 33.426 128.46 33.1061 129.075 32.7956C129.539 32.5609 129.76 32.4364 129.808 32.3823C129.834 32.3531 130.037 32.1823 130.258 32.0028C130.759 31.5962 130.968 31.399 130.968 31.3322C130.968 31.3037 130.986 31.2804 131.008 31.2804C131.049 31.2804 131.508 30.6262 131.511 30.5653C131.512 30.5479 131.555 30.4843 131.608 30.4239C131.66 30.3635 131.746 30.2398 131.8 30.149C131.921 29.9435 132.246 29.1458 132.246 29.0559C132.246 29.0193 132.265 28.9692 132.288 28.9446C132.412 28.8133 132.712 27.224 132.819 26.1301C132.87 25.5978 132.856 23.1563 132.8 22.8894C132.786 22.8246 132.761 22.6337 132.745 22.4652C132.622 21.207 132.236 19.8741 131.788 19.1545C131.727 19.0578 131.678 18.9638 131.678 18.9456C131.678 18.9274 131.565 18.7626 131.427 18.5793C131.289 18.3961 131.113 18.1613 131.037 18.0575C130.961 17.9538 130.773 17.7523 130.62 17.6097C130.348 17.3574 129.77 16.9026 129.719 16.9026C129.706 16.9026 129.599 16.838 129.481 16.759C129.154 16.5393 128.437 16.2154 127.878 16.0351C127.384 15.8754 126.576 15.7272 125.642 15.6244C125.098 15.5646 122.812 15.5427 121.903 15.5886ZM143.554 15.6044C143.544 15.6137 143.366 15.6346 143.158 15.651C142.95 15.6674 142.641 15.7006 142.472 15.7248C142.302 15.7489 142.079 15.7805 141.976 15.795C141.538 15.8561 140.662 16.1278 140.27 16.3244C139.85 16.5354 139.061 17.1043 138.822 17.3684C138.583 17.6331 138.077 18.5883 137.982 18.9532C137.883 19.3394 137.778 19.9972 137.739 20.4811C137.689 21.1156 137.701 33.3337 137.752 33.3847C137.8 33.4324 141.977 33.4379 142.025 33.3904C142.045 33.3712 142.076 30.6135 142.095 27.2622C142.114 23.9108 142.144 21.0946 142.161 21.0038C142.229 20.6365 142.392 20.1771 142.504 20.0301C142.66 19.8272 143.009 19.579 143.277 19.4815C143.823 19.2826 144.431 19.2208 145.62 19.2434C147.064 19.2707 147.448 19.3514 147.9 19.7225C148.329 20.0753 148.457 20.3596 148.516 21.0981C148.54 21.3963 148.564 24.2176 148.57 27.3678C148.577 30.5179 148.593 33.1623 148.608 33.2441C148.632 33.3819 148.651 33.3946 148.855 33.4145C149.222 33.4504 152.876 33.4279 152.914 33.3896C152.934 33.3699 152.956 30.644 152.964 27.332C152.972 24.02 152.988 21.192 153.001 21.0477C153.014 20.9032 153.06 20.6593 153.102 20.5055C153.145 20.3518 153.191 20.179 153.204 20.1214C153.244 19.9482 153.66 19.572 153.912 19.4822C154.666 19.2126 156.606 19.1465 157.756 19.3512C158.439 19.4728 159.008 19.8641 159.149 20.3091C159.38 21.0407 159.387 21.2087 159.416 27.4699C159.431 30.7022 159.46 33.3638 159.481 33.3847C159.542 33.446 163.491 33.4666 163.647 33.4064L163.779 33.3551L163.758 27.0498C163.747 23.5819 163.724 20.6279 163.708 20.4853C163.573 19.2817 163.439 18.7779 163.088 18.1513C162.778 17.5993 162.328 17.1284 161.757 16.7602C160.309 15.8261 159.043 15.5593 156.248 15.5987C155.453 15.6098 154.729 15.631 154.638 15.6458C154.547 15.6605 154.366 15.6836 154.236 15.697C153.67 15.7554 152.962 15.9031 152.341 16.0922C152.262 16.1162 151.974 16.2473 151.701 16.3835C151.242 16.6132 151.18 16.6316 150.851 16.6364C150.518 16.6411 150.465 16.6268 150.022 16.4138C149.29 16.0619 148.779 15.9095 147.845 15.765C146.764 15.5979 146.526 15.5824 145.069 15.5849C144.245 15.5864 143.563 15.5952 143.554 15.6044ZM72.881 15.8248C72.7016 15.8616 72.5577 15.9911 72.4332 16.2283C72.3811 16.3269 72.3262 16.4182 72.3105 16.4312C72.2949 16.4442 72.2092 16.5608 72.1198 16.6905C72.0303 16.8201 71.9148 16.9769 71.8637 17.039C71.8121 17.101 71.6847 17.254 71.5806 17.379C71.3065 17.7076 71.2085 17.844 71.083 18.0693C71.0215 18.1795 70.9538 18.2697 70.9325 18.2697C70.9112 18.2697 70.8941 18.2968 70.8941 18.33C70.8941 18.3632 70.8515 18.4209 70.7995 18.4582C70.7474 18.4956 70.7048 18.5511 70.7048 18.5815C70.7048 18.6119 70.6726 18.6489 70.6338 18.6639C70.5945 18.6788 70.5628 18.7217 70.5628 18.7592C70.5628 18.7968 70.5467 18.8346 70.5273 18.8432C70.4544 18.8753 69.616 19.9277 69.616 19.9867C69.616 20.0017 69.5786 20.0548 69.5331 20.1048C69.4877 20.1545 69.4438 20.2056 69.4015 20.258C69.1033 20.6408 68.8547 20.9731 68.7203 21.1679C68.5295 21.4444 68.2313 21.7461 68.21 21.6836C68.2019 21.6597 68.0239 21.4069 67.8147 21.1217C67.3777 20.5258 67.0672 20.0962 66.9649 19.9458C66.9257 19.8883 66.8064 19.737 66.6998 19.6094C66.5933 19.4818 66.4021 19.2184 66.2752 19.0239C66.1483 18.8295 66.021 18.6492 65.9921 18.6232C65.9632 18.5973 65.7715 18.3427 65.5665 18.0575C65.3616 17.7723 65.0846 17.4011 64.9506 17.2326C64.8171 17.0641 64.6358 16.8201 64.5483 16.6905C64.4612 16.5608 64.3617 16.4267 64.3277 16.3923C64.2117 16.2747 63.9778 15.9127 64.0157 15.9094C64.0365 15.9075 64.011 15.8878 63.9589 15.8655C63.9068 15.8432 62.7124 15.8235 61.305 15.8217C59.2723 15.819 58.7283 15.831 58.6616 15.8798C58.5863 15.9344 58.5835 15.9648 58.6336 16.1504C58.7004 16.3979 58.7487 16.4695 59.3485 17.209C59.6008 17.5201 59.9 17.8949 60.0131 18.0417C60.1263 18.1885 60.3895 18.5203 60.5978 18.779C60.8061 19.0377 61.0191 19.3084 61.0712 19.3806C61.1232 19.4528 61.199 19.5452 61.2392 19.5861C61.3836 19.7315 61.7983 20.2312 62.0483 20.5612C62.1874 20.7455 62.479 21.1062 62.6959 21.3626C63.1664 21.9196 63.1716 21.9257 63.3179 22.1352C63.3813 22.2259 63.4452 22.3108 63.4599 22.3237C63.4741 22.3367 63.5489 22.4322 63.6261 22.5359C63.7028 22.6396 63.788 22.748 63.815 22.7768C63.842 22.8056 63.9267 22.9082 64.0029 23.0048C64.0791 23.1014 64.2046 23.2476 64.2817 23.3296C64.3594 23.4116 64.5094 23.5954 64.6164 23.738C64.7229 23.8806 64.8214 24.0078 64.8351 24.0208C64.8489 24.0338 64.9715 24.1788 65.1073 24.343C65.3199 24.5992 65.3469 24.6531 65.2962 24.7225C65.0127 25.1107 64.6552 25.5576 64.4763 25.7475C64.3575 25.8738 64.2245 26.0302 64.1804 26.095C64.1369 26.1597 64.0659 26.2552 64.0228 26.3071C63.7406 26.649 63.5092 26.9454 63.5092 26.9642C63.5092 26.9764 63.4609 27.0358 63.4026 27.0963C63.2833 27.2192 62.951 27.6179 62.8544 27.7536C62.8199 27.802 62.7191 27.9207 62.6301 28.0172C62.5411 28.1137 62.4677 28.2102 62.4677 28.2314C62.4677 28.2527 62.4412 28.2967 62.4085 28.3292C62.3758 28.3616 62.2854 28.4699 62.2073 28.5697C62.0052 28.8278 61.794 29.0767 61.7074 29.1591C61.6667 29.198 61.5204 29.3783 61.3831 29.5598C61.1152 29.9131 60.8472 30.2394 60.6901 30.4022C60.6366 30.4576 60.5788 30.5399 60.5613 30.5852C60.5438 30.6305 60.5078 30.6676 60.4808 30.6676C60.4538 30.6676 60.4321 30.6994 60.4321 30.7383C60.4321 30.7772 60.415 30.809 60.3947 30.809C60.3743 30.809 60.3194 30.8732 60.273 30.9516C60.2266 31.0301 60.1419 31.1445 60.0855 31.2059C60.0287 31.2672 59.9199 31.3958 59.8436 31.4916C59.7674 31.5874 59.65 31.7271 59.5833 31.8021C59.5161 31.877 59.3764 32.0582 59.2723 32.2047C59.1681 32.3512 59.0346 32.5224 58.9764 32.585C58.9177 32.6477 58.8699 32.7191 58.8699 32.7439C58.8699 32.7686 58.8528 32.7889 58.8325 32.7889C58.7629 32.7889 58.6332 33.0626 58.6332 33.2102C58.6332 33.3191 58.6611 33.3687 58.7397 33.4C58.7989 33.4236 59.9729 33.4386 61.3945 33.4339C63.876 33.4255 63.9447 33.4228 64.0114 33.3318C64.0493 33.2803 64.1785 33.1281 64.2993 32.9934C64.4195 32.8588 64.5838 32.6549 64.6642 32.5403C64.8011 32.3461 65.1533 31.8758 65.2887 31.7077C65.3213 31.6671 65.452 31.5067 65.5798 31.3511C65.7071 31.1956 65.9576 30.8667 66.136 30.6204C66.3145 30.3741 66.4878 30.1514 66.5209 30.1255C66.5739 30.0841 66.6918 29.9392 66.9427 29.6069C67.2949 29.1411 67.5572 28.8015 67.5799 28.782C67.595 28.769 67.7262 28.5887 67.8715 28.3813C68.1645 27.9627 68.4377 27.6506 68.5106 27.6506C68.5371 27.6506 68.6294 27.7595 68.716 27.8925C68.8027 28.0256 68.9991 28.2922 69.153 28.485C69.3068 28.6778 69.5729 29.0409 69.7443 29.2919C70.06 29.7542 70.2087 29.9546 70.363 30.1255C70.4884 30.2651 70.8468 30.7535 70.8468 30.7854C70.8468 30.8006 70.9372 30.9341 71.0475 31.0821C71.1578 31.2301 71.2923 31.4153 71.3467 31.4937C71.4007 31.5722 71.4793 31.6782 71.5214 31.7294C71.715 31.9638 71.9219 32.232 72.0303 32.3882C72.0951 32.4821 72.1709 32.5841 72.1983 32.6149C72.3049 32.7358 72.551 33.1148 72.551 33.1585C72.551 33.184 72.6164 33.2597 72.6964 33.3268L72.8422 33.4489L75.3355 33.4482C76.707 33.4479 77.8753 33.4353 77.9312 33.4203C78.0098 33.3993 78.0372 33.3494 78.0514 33.2023C78.0623 33.0867 78.0457 32.9875 78.0088 32.9507C77.9752 32.9173 77.9477 32.8788 77.9477 32.8653C77.9477 32.8517 77.8777 32.7706 77.7925 32.6851C77.7073 32.5996 77.6064 32.4678 77.5676 32.3923C77.5293 32.3167 77.3588 32.094 77.1889 31.8973C77.0189 31.7006 76.8168 31.4548 76.7392 31.3511C76.4414 30.9515 75.8904 30.2662 75.8549 30.2512C75.834 30.2425 75.8175 30.2087 75.8175 30.176C75.8175 30.1433 75.7725 30.0761 75.7176 30.0267C75.6627 29.9773 75.496 29.7778 75.3474 29.5834C74.9175 29.022 74.6576 28.69 74.3513 28.3106C74.1636 28.077 73.9787 27.8413 73.7965 27.6035C73.6488 27.409 73.5144 27.2393 73.4983 27.2263C73.4618 27.1966 72.9222 26.4901 72.8587 26.3883C72.8327 26.3467 72.7655 26.2649 72.7096 26.2065C72.5785 26.0696 72.1723 25.5441 72.1723 25.5114C72.1723 25.4977 72.124 25.4351 72.0658 25.3723C71.6871 24.9664 71.4149 24.5774 71.4149 24.4417C71.4149 24.3883 71.4651 24.3259 71.5332 24.2951C71.5981 24.2655 71.6516 24.2234 71.6516 24.2015C71.6516 24.1796 71.7041 24.116 71.7685 24.0603C71.8329 24.0045 71.9441 23.8721 72.0161 23.766C72.2078 23.4822 72.4436 23.1851 72.7304 22.8659C73.0334 22.5289 73.0557 22.5025 73.2644 22.2295C73.3534 22.1128 73.4405 22.0067 73.4576 21.9938C73.4742 21.9808 73.5826 21.8429 73.6976 21.6874C73.8126 21.5318 73.9906 21.3065 74.0929 21.1868C74.2993 20.9452 74.3253 20.9132 74.6458 20.5088C74.7694 20.3533 74.8991 20.1942 74.9341 20.1553C74.9687 20.1164 75.1121 19.9361 75.2522 19.7546C75.3923 19.5731 75.621 19.2867 75.7607 19.1182C75.8998 18.9497 76.0475 18.7694 76.0887 18.7175C76.1294 18.6657 76.2506 18.5245 76.3571 18.4038C76.4636 18.2831 76.5725 18.1558 76.5986 18.1209C76.6246 18.086 76.7089 17.9726 76.786 17.8689C76.9437 17.6576 77.3205 17.2052 77.6822 16.794C77.9331 16.5089 78.0827 16.2148 78.0869 15.9973C78.0893 15.8894 78.0661 15.8658 77.9359 15.8438C77.7144 15.8065 73.0561 15.789 72.881 15.8248ZM82.9681 15.9082C82.9066 16.0227 82.9198 33.3246 82.9814 33.386C83.033 33.4374 87.2533 33.4374 87.3049 33.386C87.3518 33.3396 87.3442 15.9203 87.2978 15.8737C87.2803 15.8562 86.3103 15.8356 85.1424 15.8279C83.0595 15.8141 83.0178 15.8157 82.9681 15.9082ZM169.838 15.861C169.73 15.8799 169.669 15.92 169.654 15.9834C169.642 16.0352 169.629 19.943 169.626 24.6673C169.621 32.5894 169.627 33.263 169.699 33.3347C169.768 33.4032 169.989 33.4153 171.569 33.4374C172.555 33.4511 173.505 33.447 173.68 33.4283L174 33.3942V15.8785L173.734 15.8474C173.412 15.8098 170.065 15.8215 169.838 15.861ZM124.682 19.2156C126.044 19.3562 126.94 19.7105 127.517 20.337C128.211 21.0902 128.4 21.7842 128.46 23.7851C128.534 26.3193 128.377 27.7435 127.944 28.452C127.669 28.9012 126.998 29.4702 126.448 29.7222C125.663 30.081 125.075 30.1726 123.559 30.1726C122.367 30.1726 122.033 30.136 121.247 29.9193C120.631 29.7492 120.065 29.4295 119.654 29.0184C119.406 28.7692 119.084 28.1784 118.962 27.7449C118.75 26.9912 118.612 25.889 118.613 24.9583C118.617 22.9063 118.795 21.7746 119.245 20.9488C119.449 20.5747 119.935 20.0109 120.157 19.8918C120.414 19.7538 120.792 19.5635 120.932 19.5015C121.086 19.4338 121.829 19.26 122.163 19.2137C122.564 19.1583 124.138 19.1595 124.682 19.2156ZM103.748 25.535C104.047 25.5555 104.345 25.5839 104.411 25.5981C104.475 25.6122 104.71 25.6366 104.931 25.6522C105.152 25.6679 105.376 25.6875 105.428 25.6958C105.48 25.7041 105.539 25.7124 105.56 25.7144C105.605 25.7187 105.56 27.0401 105.492 27.6909C105.439 28.2022 105.279 28.7852 105.124 29.0358C104.921 29.3618 104.342 29.7661 103.974 29.8378C103.914 29.8493 103.77 29.8939 103.653 29.9368C103.255 30.0828 102.35 30.1425 100.765 30.1274C99.9451 30.1196 99.189 30.0992 99.0849 30.0821C98.4884 29.9843 97.8981 29.7998 97.5681 29.6079C97.3385 29.4744 96.9702 29.0206 96.8131 28.6775C96.6081 28.2295 96.5551 27.2582 96.7189 26.9403C96.7899 26.8023 97.0678 26.4372 97.2424 26.2525C97.4081 26.0776 98.1618 25.7857 98.6271 25.7166C99.0352 25.656 100.059 25.5367 100.363 25.5143C100.796 25.4825 103.195 25.4972 103.748 25.535Z" fill="white"/>
<path fillRule="evenodd" clipRule="evenodd" d="M22.1788 0.0424729C22.1673 0.0525138 21.6786 0.0741041 21.0927 0.0904618C17.3469 0.19516 13.4254 0.800442 10.9621 1.65411C8.52573 2.49844 6.61235 3.67888 4.99584 5.33501C3.99276 6.36257 3.2555 7.39174 2.59241 8.68994C1.52301 10.7833 0.982626 12.8792 0.48092 16.8792C0.121896 19.7413 -5.05177e-05 21.8126 0.00766585 24.9167C0.0169444 28.6359 0.325031 32.0411 0.977939 35.6411C1.47415 38.3771 2.43193 40.562 4.01785 42.5758C4.52287 43.2171 4.5678 43.2681 5.12967 43.8382C7.13834 45.8765 9.53761 47.2377 12.3586 47.9392C13.7938 48.296 15.9975 48.6184 18.0157 48.7669C19.9558 48.9098 22.6169 48.9819 25.9451 48.9819C32.6392 48.9819 36.8437 48.2936 40.1943 46.6493C41.6708 45.9247 42.8263 45.098 44.0101 43.9192C45.7242 42.2123 46.7904 40.463 47.6045 38.0217C48.5125 35.3004 48.8997 32.8992 49.0039 29.3479C49.0214 28.7645 49.0417 28.2757 49.0498 28.2615C49.0777 28.2112 49.1416 24.9645 49.1416 23.5732C49.1416 20.4426 48.9991 18.121 48.6668 15.8314C48.2379 12.8758 47.6888 10.9079 46.776 9.05396C45.9924 7.46259 45.1402 6.28866 43.8968 5.08781C42.7767 4.00603 41.555 3.16142 40.0523 2.43004C37.4957 1.18563 34.7188 0.519439 31.2234 0.311927C29.7459 0.224246 29.6057 0.217081 28.4304 0.169327C27.7925 0.1434 27.0469 0.110732 26.7735 0.0967786C26.1436 0.0645346 22.2068 0.0180542 22.1788 0.0424729ZM26.5909 15.4196C27.8123 15.6206 28.8632 16.1844 29.7444 17.1114C30.3382 17.7361 30.7237 18.3749 30.9837 19.1656C31.2285 19.9096 31.2234 19.7344 31.2234 27.3741C31.2234 34.4233 31.2226 34.487 31.1288 34.5804C31.0369 34.6719 30.971 34.6747 28.8854 34.6747C26.9085 34.6747 26.7287 34.6681 26.6369 34.5922L26.5371 34.5097L26.5236 28.1929C26.511 22.2613 26.5049 21.8589 26.4247 21.5933C26.1101 20.5525 25.2879 19.7435 24.2645 19.4678C23.9813 19.3915 23.5801 19.3844 19.2228 19.3788C16.6191 19.3755 14.4332 19.3908 14.3652 19.4129C14.2972 19.435 14.2173 19.506 14.1877 19.5708C14.1482 19.6572 14.1338 21.6577 14.1338 27.0873C14.1338 34.4233 14.133 34.487 14.0391 34.5804C13.9473 34.6719 13.8814 34.6747 11.8011 34.6747C9.93768 34.6747 9.64389 34.6651 9.55243 34.6013L9.44719 34.528V25.0318C9.44719 15.5899 9.44771 15.5352 9.54215 15.4412C9.63646 15.3473 9.69071 15.3467 17.9094 15.3495C24.8456 15.3519 26.2478 15.3632 26.5909 15.4196ZM39.581 15.4629L39.6972 15.5786V34.4263L39.5991 34.5505L39.501 34.6747H35.1595L35.0614 34.5505L34.9633 34.4263V15.5786L35.0795 15.4629L35.1957 15.3472H39.4648L39.581 15.4629ZM22.7104 22.8734C22.7934 22.9481 22.797 23.1913 22.797 28.7188C22.797 34.4233 22.7959 34.4872 22.7023 34.5804C22.6103 34.6721 22.5445 34.6747 20.3353 34.6747C18.1261 34.6747 18.0604 34.6721 17.9683 34.5804C17.8747 34.4872 17.8736 34.4233 17.8736 28.735C17.8736 23.0468 17.8747 22.9829 17.9683 22.8896C18.0604 22.798 18.1261 22.7954 20.3434 22.7954C22.3989 22.7954 22.6324 22.803 22.7104 22.8734Z" fill="white"/>
</g>
<defs>
<clipPath id="clip0_128_721">
<rect width="174" height="49" fill="white"/>
</clipPath>
</defs>
</svg>
