<svg width="155" height="51" viewBox="0 0 155 51" fill="none" xmlns="http://www.w3.org/2000/svg">
<path d="M30.4394 1.90566e-06L30.3863 0.00494783C30.2466 0.0135915 30.1041 0.0684122 30.0022 0.178507L20.1835 10.8335C18.7794 10.4142 17.1844 10.1316 15.6539 10.1316C7.18019 10.1316 0.307195 16.9904 0.307195 25.4486C0.307195 30.7761 3.08637 35.5 7.22178 38.2451L0.075151 50.1323C-0.00359597 50.2621 -0.0144941 50.4135 0.0150577 50.5497C0.0446218 50.6858 0.11517 50.8127 0.225368 50.8949C0.335572 50.9771 0.474528 51.0081 0.614023 50.9982C0.753519 50.9884 0.8981 50.9345 1.00076 50.8221L10.9453 40.0318C12.4292 40.5089 14.0115 40.7675 15.6539 40.7675C24.1277 40.7675 31 33.9068 31 25.4486C31 20.0919 28.0971 15.2662 23.9211 12.5238L30.9444 0.838934L30.9444 0.830285C31.0041 0.709398 31.0101 0.574779 30.9834 0.451249C30.954 0.315495 30.8882 0.188773 30.7782 0.106683C30.69 0.0407446 30.5763 0.0319704 30.4662 0.0269077L30.4394 1.90566e-06ZM27.5935 4.35569L16.4657 22.8658C15.6413 24.2373 16.6583 26.0295 18.2607 26.0295L21.9114 26.0295C22.0349 26.0295 22.0719 26.0723 22.1115 26.1622C22.1506 26.2514 22.1548 26.3075 22.0706 26.3989L3.40684 46.6478L14.7718 27.7396C15.4912 26.5427 14.6021 24.9709 13.2037 24.9709L9.19574 24.9709C9.05334 24.9709 8.99754 24.9166 8.95156 24.812C8.90544 24.707 8.90362 24.6321 9.00013 24.5274L27.5935 4.35569ZM10.8872 40.0128C10.8944 40.0153 10.9016 40.0178 10.9089 40.0202L10.8897 40.0153L10.8872 40.0128Z" fill="#E4E700"/>
<path d="M41.0547 11.2932L47.4367 18.2423L60.2001 18.2423C64.0292 18.2423 65.3059 19.6321 65.3059 21.6982C65.3059 23.8013 64.0292 25.1907 60.2001 25.1907L43.0037 25.1907L42.0292 26.2123L41.0547 27.2339L41.0547 39.0881L47.4367 39.0881L47.4367 33.5294L48.713 32.1398L63.3206 32.1398C69.1345 32.1398 72.9635 28.5439 72.9635 21.6436C72.9635 14.6715 69.1348 11.2932 63.4208 11.2932L41.0547 11.2932Z" fill="#E4E700" stroke="#E4E700" stroke-width="1.88976"/>
<path d="M78.8054 11.2932L85.1874 18.2423L97.9508 18.2423C101.78 18.2423 103.057 19.6321 103.057 21.6982C103.057 23.8013 101.78 25.1907 97.9508 25.1907L80.7545 25.1907L78.8054 27.2339L78.8054 39.0881L85.1874 39.0881L85.1874 33.5294L86.4637 32.1398L101.071 32.1398C106.885 32.1398 110.714 28.5439 110.714 21.6436C110.714 14.6715 106.886 11.2932 101.172 11.2932L78.8054 11.2932Z" fill="#E4E700" stroke="#E4E700" stroke-width="1.88976"/>
<path d="M116.531 12.9657L116.531 39.0881L123.926 39.0881L123.935 25.1091L135.038 39.0748L146.143 25.1091L146.156 39.0881L153.545 39.0881L153.545 13.0061L151.972 11.2932L146.057 11.2932L135.038 25.1677L123.914 11.2932L118.138 11.2932L116.531 12.9657Z" fill="#E4E700" stroke="#E4E700" stroke-width="1.88976"/>
</svg>
